<?xml version="1.0" encoding="UTF-8" standalone="no"?>
<!-- Created with Inkscape (http://www.inkscape.org/) -->

<svg
   width="120mm"
   height="120mm"
   viewBox="-60 -60 120 120"
   sodipodi:docname="R logo usable.svg"
   version="1.1"
   id="svg6739"
   inkscape:version="1.1.2 (b8e25be833, 2022-02-05)"
   xmlns:inkscape="http://www.inkscape.org/namespaces/inkscape"
   xmlns:sodipodi="http://sodipodi.sourceforge.net/DTD/sodipodi-0.dtd"
   xmlns="http://www.w3.org/2000/svg"
   xmlns:svg="http://www.w3.org/2000/svg"
   xmlns:rdf="http://www.w3.org/1999/02/22-rdf-syntax-ns#"
   xmlns:cc="http://creativecommons.org/ns#"
   xmlns:dc="http://purl.org/dc/elements/1.1/">
  <defs
     id="defs6741" />
  <sodipodi:namedview
     pagecolor="#ffffff"
     bordercolor="#666666"
     borderopacity="1.0"
     inkscape:pageopacity="0.0"
     inkscape:pageshadow="2"
     inkscape:zoom="0.3535534"
     inkscape:cx="-110.30865"
     inkscape:cy="-55.154327"
     inkscape:document-units="mm"
     inkscape:current-layer="Template"
     showgrid="false"
     units="mm"
     showguides="true"
     inkscape:guide-bbox="true"
     inkscape:snap-global="true"
     inkscape:snap-bbox="true"
     inkscape:snap-bbox-midpoints="true"
     inkscape:window-width="1920"
     inkscape:window-height="991"
     inkscape:window-x="-9"
     inkscape:window-y="-9"
     inkscape:window-maximized="1"
     inkscape:bbox-paths="true"
     inkscape:bbox-nodes="true"
     inkscape:snap-bbox-edge-midpoints="true"
     inkscape:snap-grids="true"
     id="namedview6729"
     inkscape:pagecheckerboard="0">
    <sodipodi:guide
       orientation="1,0"
       position="226.771653543,226.771653543"
       id="guide2827" />
    <sodipodi:guide
       orientation="0,1"
       position="226.771653543,226.771653543"
       id="guide2829" />
    <inkscape:grid
       type="xygrid"
       id="grid3072"
       empspacing="10"
       visible="true"
       enabled="true"
       snapvisiblegridlinesonly="true"
       units="mm"
       dotted="false"
       spacingx="0.1mm"
       spacingy="0.1mm" />
  </sodipodi:namedview>
  <metadata
     id="metadata2822">
    <rdf:RDF>
      <cc:Work
         rdf:about="">
        <dc:format>image/svg+xml</dc:format>
        <dc:type
           rdf:resource="http://purl.org/dc/dcmitype/StillImage" />
      </cc:Work>
    </rdf:RDF>
  </metadata>
  <g
     inkscape:label="Layer 1"
     inkscape:groupmode="layer"
     id="Template"
     style="fill:none;stroke:black;stroke-width:0.05">
    <circle
       cx="0"
       cy="0"
       r="60"
       id="circle6732" />
    <circle
       cx="0"
       cy="0"
       r="19"
       id="circle6734" />
    <circle
       cx="0"
       cy="0"
       r="7.5"
       id="circle6736" />
    <rect
       style="fill:#000000;stroke-width:0.450743"
       id="rect6924"
       width="119.59925"
       height="119.59927"
       x="-59.799629"
       y="-59.799629" />
    <g
       id="g7884"
       transform="translate(1.6787519,7.816952)">
      <g
         id="g76339"
         transform="matrix(0.26458333,0,0,0.26458333,-68.136989,-136.53875)"
         style="font-size:192px;font-family:'Nexa Light';-inkscape-font-specification:'Nexa Light, ';letter-spacing:12px;white-space:pre;fill:#ffffff;stroke:#ffffff;stroke-width:6.04724">
        <path
           style="color:#000000;-inkscape-font-specification:'Nexa Light, ';fill:#ffffff;stroke:none;-inkscape-stroke:none"
           d="m 185.61957,545.09009 c 26.688,0 48.192,-18.432 48.192,-48.576 0,-30.144 -21.504,-49.344 -48.192,-49.344 -26.688,0 -48.192,19.2 -48.192,49.344 0,30.144 21.504,48.576 48.192,48.576 z m 0,-9.216 c -21.504,0 -38.976,-14.784 -38.976,-39.36 0,-24.576 17.472,-40.512 38.976,-40.512 21.504,0 38.976,15.936 38.976,40.512 0,24.576 -17.472,39.36 -38.976,39.36 z"
           id="path76335" />
        <path
           style="color:#000000;-inkscape-font-specification:'Nexa Light, ';fill:#ffffff;stroke:none;-inkscape-stroke:none"
           d="m 185.61914,444.14648 c -28.13815,0 -51.21484,20.78524 -51.21484,52.36719 0,31.58196 23.1347,51.59961 51.21484,51.59961 28.08014,0 51.2168,-20.01765 51.2168,-51.59961 0,-31.58195 -23.07865,-52.36719 -51.2168,-52.36719 z m 0,6.04688 c 25.2378,0 45.16797,17.61433 45.16797,46.32031 0,28.70599 -19.87216,45.55274 -45.16797,45.55274 -25.2958,0 -45.16797,-16.84675 -45.16797,-45.55274 0,-28.70598 19.93017,-46.32031 45.16797,-46.32031 z m 0,2.78516 c -22.99779,0 -42,17.52611 -42,43.53515 0,26.00905 19.1102,42.38477 42,42.38477 22.8898,0 42,-16.37572 42,-42.38477 0,-26.00904 -19.00221,-43.53515 -42,-43.53515 z m 0,6.04687 c 20.01017,0 35.95313,14.34537 35.95313,37.48828 0,23.14291 -15.83498,36.33594 -35.95313,36.33594 -20.11815,0 -35.95117,-13.19303 -35.95117,-36.33594 0,-23.14291 15.941,-37.48828 35.95117,-37.48828 z"
           id="path76337" />
      </g>
      <g
         id="g76345"
         transform="matrix(0.26458333,0,0,0.26458333,-68.136989,-136.53875)"
         style="font-size:192px;font-family:'Nexa Light';-inkscape-font-specification:'Nexa Light, ';letter-spacing:12px;white-space:pre;fill:#ffffff;stroke:#ffffff;stroke-width:6.04724">
        <path
           style="color:#000000;-inkscape-font-specification:'Nexa Light, ';fill:#ffffff;stroke:none;-inkscape-stroke:none"
           d="m 311.28339,545.09009 c 26.688,0 48.192,-18.432 48.192,-48.576 0,-30.144 -21.504,-49.344 -48.192,-49.344 -26.688,0 -48.192,19.2 -48.192,49.344 0,30.144 21.504,48.576 48.192,48.576 z m 0,-9.216 c -21.504,0 -38.976,-14.784 -38.976,-39.36 0,-24.576 17.472,-40.512 38.976,-40.512 21.504,0 38.976,15.936 38.976,40.512 0,24.576 -17.472,39.36 -38.976,39.36 z"
           id="path76341" />
        <path
           style="color:#000000;-inkscape-font-specification:'Nexa Light, ';fill:#ffffff;stroke:none;-inkscape-stroke:none"
           d="m 311.2832,444.14648 c -28.13815,0 -51.21484,20.78524 -51.21484,52.36719 0,31.58196 23.1347,51.59961 51.21484,51.59961 28.08015,0 51.21485,-20.01765 51.21485,-51.59961 0,-31.58195 -23.0767,-52.36719 -51.21485,-52.36719 z m 0,6.04688 c 25.2378,0 45.16797,17.61433 45.16797,46.32031 0,28.70599 -19.87216,45.55274 -45.16797,45.55274 -25.2958,0 -45.16797,-16.84675 -45.16797,-45.55274 0,-28.70598 19.93018,-46.32031 45.16797,-46.32031 z m 0,2.78516 c -22.99779,0 -42,17.52611 -42,43.53515 0,26.00905 19.1102,42.38477 42,42.38477 22.88981,0 42,-16.37572 42,-42.38477 0,-26.00904 -19.00221,-43.53515 -42,-43.53515 z m 0,6.04687 c 20.01017,0 35.95313,14.34537 35.95313,37.48828 0,23.14291 -15.83497,36.33594 -35.95313,36.33594 -20.11815,0 -35.95312,-13.19303 -35.95312,-36.33594 0,-23.14291 15.94296,-37.48828 35.95312,-37.48828 z"
           id="path76343" />
      </g>
      <g
         id="g76351"
         transform="matrix(0.26458333,0,0,0.26458333,-68.136989,-136.53875)"
         style="font-size:192px;font-family:'Nexa Light';-inkscape-font-specification:'Nexa Light, ';letter-spacing:12px;white-space:pre;fill:#ffffff;stroke:#ffffff;stroke-width:6.04724">
        <path
           style="color:#000000;-inkscape-font-specification:'Nexa Light, ';fill:#ffffff;stroke:none;-inkscape-stroke:none"
           d="m 403.73116,421.25009 v 27.648 h -20.16 v 7.872 h 20.16 v 57.792 c 0,18.624 6.528,30.528 26.688,30.528 5.952,0 11.904,-1.92 17.856,-4.8 l -3.264,-7.68 c -4.8,2.304 -9.984,3.84 -14.592,3.84 -14.784,0 -17.472,-9.024 -17.472,-21.888 v -57.792 h 32.256 v -7.872 h -32.256 v -28.608 z"
           id="path76347" />
        <path
           style="color:#000000;-inkscape-font-specification:'Nexa Light, ';fill:#ffffff;stroke:none;-inkscape-stroke:none"
           d="m 415.9707,416.93555 -15.26367,1.58984 v 2.72461 24.625 h -20.16016 v 13.91797 h 20.16016 v 54.76953 c 0,9.66527 1.645,18.00159 6.42774,24.11133 4.78273,6.10973 12.61004,9.43945 23.28515,9.43945 6.60224,0 12.98274,-2.10682 19.17188,-5.10156 l 2.59179,-1.25391 -5.62695,-13.24219 -2.85352,1.36915 c -4.50696,2.16334 -9.34712,3.54101 -13.2832,3.54101 -6.7768,0 -9.8072,-1.77208 -11.74805,-4.74805 -1.94084,-2.97596 -2.70117,-7.89384 -2.70117,-14.11523 v -54.76953 h 32.25586 V 445.875 H 415.9707 Z m -6.04687,6.70898 v 28.27734 h 32.25586 v 1.82422 h -32.25586 v 60.81641 c 0,6.64259 0.58444,12.6679 3.68359,17.41992 3.09915,4.75203 8.80531,7.49219 16.8125,7.49219 4.28872,0 8.69152,-1.28801 12.94141,-3.01758 l 0.91601,2.15625 c -4.7534,2.03406 -9.39928,3.45313 -13.85742,3.45313 -9.48486,0 -15.00218,-2.62089 -18.52344,-7.11914 -3.52125,-4.49826 -5.14257,-11.42605 -5.14257,-20.38477 V 453.74609 H 386.5957 v -1.82422 h 20.15821 v -27.94726 z"
           id="path76349" />
      </g>
      <path
         id="path76359"
         style="fill:#ff0000;stroke:#ffffff;stroke-width:0;stroke-miterlimit:4;stroke-dasharray:none"
         d="m -54.457508,-6.8993147 v 4.08916 l 4.089154,-4.08916 z" />
      <path
         style="fill:none;stroke:#000000;stroke-width:0;stroke-linecap:butt;stroke-linejoin:miter;stroke-miterlimit:4;stroke-dasharray:none;stroke-opacity:1"
         d="m -54.457498,-1.1102347 c 0,10.28987 0,10.28618 0,10.28618"
         id="path76361" />
      <path
         style="fill:none;stroke:#000000;stroke-width:0;stroke-linecap:butt;stroke-linejoin:miter;stroke-miterlimit:4;stroke-dasharray:none;stroke-opacity:1"
         d="m -54.457498,-1.1102347 c 0,11.2022497 0,11.1982397 0,11.1982397"
         id="path76363" />
      <path
         style="fill:none;stroke:#000000;stroke-width:0;stroke-linecap:butt;stroke-linejoin:miter;stroke-miterlimit:4;stroke-dasharray:none;stroke-opacity:1"
         d="m -50.368344,-5.2614047 c 0,15.8577497 0,15.8520697 0,15.8520697"
         id="path76365" />
      <path
         style="fill:none;stroke:#000000;stroke-width:0;stroke-linecap:butt;stroke-linejoin:miter;stroke-miterlimit:4;stroke-dasharray:none;stroke-opacity:1"
         d="m -54.457498,-1.1102347 c 0,11.2022497 0,11.1982397 0,11.1982397"
         id="path76367" />
      <g
         id="g76373"
         transform="matrix(0.26458333,0,0,0.26458333,-68.098974,-136.55531)"
         style="font-size:192px;font-family:'Nexa Light';-inkscape-font-specification:'Nexa Light, ';letter-spacing:12px;white-space:pre;fill:#ffffff;stroke:#ffffff;stroke-width:6.04117;stroke-miterlimit:4;stroke-dasharray:none">
        <path
           id="path76369"
           style="color:#000000;-inkscape-font-specification:'Nexa Light, ';fill:#ffffff;stroke:none;stroke-width:6.04117;stroke-miterlimit:4;stroke-dasharray:none"
           transform="translate(21.687203,-3.1607858)"
           d="m 73.597656,451.09961 c -12.096,0 -25.536281,4.99147 -31.488281,17.85547 L 41.724609,452.05859 H 32.892578 V 494.875 c 0.30455,0.0122 0.496302,0.0149 0.857422,0.0312 1.05526,0.0499 2.10443,0.19628 3.15625,0.29492 1.41118,0.14877 2.823002,0.28286 4.232422,0.44727 0.0134,0.002 0.01815,0.002 0.03125,0.004 0.0336,-0.0372 0.06529,-0.0711 0.107422,-0.11523 0.092,-0.0964 0.194635,-0.18022 0.296875,-0.26563 0.0201,-0.0168 0.04045,-0.034 0.06055,-0.0508 0.003,-0.0131 0.0068,-0.0254 0.0098,-0.0371 3.4e-4,0.009 0.0029,0.0175 0.0059,0.0254 0.0305,-0.0254 0.0611,-0.051 0.0918,-0.0762 0.0322,-0.1871 -0.004,-0.15312 0.154296,-0.15625 0.0117,-0.009 0.02797,-0.004 0.04297,0 0.003,-0.003 0.0058,-0.005 0.0098,-0.008 0.0237,-0.0183 0.04691,-0.0365 0.07031,-0.0547 0.0191,-0.0746 0.04867,-0.14818 0.07617,-0.20898 0.004,-0.0113 -6.29e-4,0.0198 -0.002,0.0273 0.0387,0.0192 0.0802,0.0344 0.123047,0.0488 0.0242,-0.0518 0.05268,-0.10171 0.08398,-0.15039 v -0.041 c -0.0355,-0.0259 -0.06855,-0.0551 -0.09375,-0.0918 -0.0477,-0.0693 0.01025,-0.0888 0.09375,-0.084 v -2.80273 c 0,-17.28 13.632875,-31.48769 31.296875,-31.67969 5.568,0 11.134953,1.34402 16.126953,4.41602 l 4.22461,-7.68164 c -6.336,-3.84 -13.247563,-5.75841 -20.351563,-5.56641 z m -35.027344,68.44531 c -4.87e-4,0.003 5e-4,0.005 0,0.008 0.006,-3.3e-4 0.01909,-0.002 0.02539,-0.002 -0.008,-0.002 -0.01689,-0.004 -0.02539,-0.006 z m 1.751954,21.19141 c 9.63e-4,0.004 0.0028,0.009 0.0039,0.0137 -0.0028,-0.003 -0.0032,-0.008 -0.0039,-0.0137 z m -1.679688,1.25781 c 0.0036,0.0114 0.01023,0.032 0.01367,0.043 0.0014,-0.0143 0.0026,-0.0286 0.0039,-0.043 -0.0059,9e-5 -0.01172,-10e-5 -0.01758,0 z m -0.183594,0.004 c -0.0075,0.0204 -0.01236,0.042 -0.01953,0.0625 0.04951,0.024 0.101538,0.0479 0.144531,0.0703 -0.03295,-0.0448 -0.06987,-0.0891 -0.109375,-0.13281 -0.0052,2.6e-4 -0.01042,-2.9e-4 -0.01563,0 z m 0.125,0.13281 c 0.01865,0.0254 0.03841,0.0498 0.05469,0.0742 0.0014,-0.0143 0.0025,-0.0286 0.0039,-0.043 -0.01883,-0.0103 -0.0376,-0.0204 -0.05859,-0.0312 z m 0.05469,0.0742 c -5.1e-4,0.005 -0.0015,0.0104 -0.002,0.0156 0.0023,-0.003 0.0055,-0.003 0.0078,-0.006 -0.0021,-0.003 -0.0036,-0.006 -0.0059,-0.01 z m -0.230469,-0.0469 c -0.02827,0.0863 -0.05749,0.17271 -0.08398,0.25977 0.02151,-0.004 0.04292,-0.008 0.06445,-0.0117 0.03585,-0.10305 0.110153,-0.16312 0.226562,-0.16406 4.86e-4,-6.5e-4 0.0015,-10e-4 0.002,-0.002 -0.07141,-0.0218 -0.139748,-0.052 -0.208985,-0.082 z" />
        <path
           id="path76371"
           style="color:#000000;-inkscape-font-specification:'Nexa Light, ';fill:#ffffff;stroke:none;stroke-width:6.04117;stroke-miterlimit:4;stroke-dasharray:none"
           transform="translate(21.687203,-3.1607858)"
           d="m 73.539062,448.07812 c -10.026177,0.0126 -21.08784,3.35793 -28.61914,11.44727 L 44.681641,449.03516 H 29.871094 v 3.02343 42.75586 c 0.92865,-0.012 1.953106,8.1e-4 3.878906,0.0918 0.72445,0.0343 1.446429,0.11287 2.167969,0.19141 v -40.01563 h 2.851562 l 0.31836,13.94141 5.765625,1.20117 c 5.34876,-11.56023 17.48004,-16.10352 28.74414,-16.10352 h 0.04102 0.04102 c 5.575077,-0.15058 10.988239,1.19078 16.130859,3.79688 l -1.318359,2.39648 c -4.75513,-2.30691 -9.845762,-3.4082 -14.894532,-3.4082 h -0.01563 -0.01758 c -19.26815,0.20944 -34.285156,15.83295 -34.285156,34.70313 v 3.83593 c 0.62015,0.0644 1.239895,0.13087 1.859375,0.20313 0.0154,0.002 0.01615,0.002 0.03125,0.004 0.0336,-0.0372 0.06529,-0.0711 0.107422,-0.11523 0.092,-0.0964 0.194635,-0.18022 0.296875,-0.26563 0.0201,-0.0168 0.04045,-0.034 0.06055,-0.0508 0.003,-0.0131 0.0068,-0.0254 0.0098,-0.0371 3.4e-4,0.009 0.0029,0.0175 0.0059,0.0254 0.0305,-0.0254 0.0611,-0.051 0.0918,-0.0762 0.0322,-0.1871 -0.004,-0.15312 0.154296,-0.15625 0.0117,-0.009 0.02797,-0.004 0.04297,0 0.003,-0.003 0.0058,-0.005 0.0098,-0.008 0.0237,-0.0183 0.04691,-0.0365 0.07031,-0.0547 0.0191,-0.0746 0.04867,-0.14818 0.07617,-0.20898 0.004,-0.0113 -6.29e-4,0.0198 -0.002,0.0273 0.0387,0.0192 0.0802,0.0344 0.123047,0.0488 0.0287,-0.0615 0.0633,-0.12064 0.101562,-0.17773 -0.0428,-0.0287 -0.0817,-0.0625 -0.111328,-0.10547 -0.0723,-0.10498 0.09739,-0.0968 0.234375,-0.0605 0.003,-0.004 0.0058,-0.009 0.0098,-0.0137 0.0282,-0.0351 0.0792,0.0174 0.128906,0.0703 -0.0247,-0.0202 -0.0793,-0.0409 -0.138672,-0.0566 -0.0427,0.0535 -0.0844,0.10829 -0.123047,0.16602 0.0349,0.0234 0.0739,0.0423 0.113282,0.0605 0.0483,-0.0282 0.0826,-0.0508 0.130859,-0.0781 0.01,-0.0208 0.0195,-0.0411 0.0293,-0.0645 0.003,-0.006 8.7e-4,-0.0144 -0.0059,-0.0215 0.016,0.0171 0.03012,0.0331 0.04492,0.0469 0.12215,-0.0685 0.252671,-0.15306 0.337891,-0.20118 0.57084,-0.2578 1.143982,-0.51237 1.701172,-0.79882 0.21966,-0.11298 0.4413,-0.22563 0.65625,-0.34766 v -1.58984 c 0,-15.68582 12.239149,-28.4734 28.292969,-28.6543 5.07395,0.003 10.055284,1.21837 14.521484,3.9668 l 2.705078,1.66406 7.150391,-13.00196 -2.478516,-1.5039 c -6.78056,-4.10943 -14.285646,-6.20514 -21.978516,-6.00196 z m -33.216796,92.65821 c 9.63e-4,0.004 0.0028,0.009 0.0039,0.0137 -0.0028,-0.003 -0.0032,-0.008 -0.0039,-0.0137 z" />
      </g>
      <path
         id="path76375"
         style="fill:#ffffff;stroke:#ffffff;stroke-width:0;stroke-miterlimit:4;stroke-dasharray:none"
         d="m -54.457735,-6.8993347 v 4.08916 l 4.089154,-4.08916 z" />
      <path
         id="path76377"
         style="fill:#49bf9d;fill-opacity:1;stroke:#ffffff;stroke-width:0;stroke-miterlimit:4;stroke-dasharray:none"
         d="m -53.654166,-2.4616047 -0.803569,0.81545 v 5.43998 h 0.803569 z" />
      <path
         id="path76379"
         style="fill:#49bf9d;fill-opacity:1;stroke:#ffffff;stroke-width:0;stroke-miterlimit:4;stroke-dasharray:none"
         d="m -52.011491,-4.1516047 -0.812871,0.82528 v 9.96166 h 0.812871 z" />
      <path
         id="path76381"
         style="fill:#49bf9d;fill-opacity:1;stroke:#ffffff;stroke-width:0;stroke-miterlimit:4;stroke-dasharray:none"
         d="m -50.368581,-5.7497047 -0.846977,0.85989 v 9.75651 h 0.846977 z" />
      <rect
         style="fill:#49bf9d;fill-opacity:1;stroke:#49bf9d;stroke-width:0;stroke-miterlimit:4;stroke-dasharray:none;stroke-opacity:1"
         id="rect76383"
         width="0.81287217"
         height="0.77155292"
         x="-52.824368"
         y="6.5940251" />
      <circle
         style="fill:none;stroke:#49bf9d;stroke-width:0.351;stroke-miterlimit:4;stroke-dasharray:none;stroke-opacity:1"
         id="circle76385"
         cx="-54.05595"
         cy="4.3569946"
         r="0.62931234" />
      <circle
         style="fill:none;stroke:#49bf9d;stroke-width:0.351;stroke-miterlimit:4;stroke-dasharray:none;stroke-opacity:1"
         id="circle76387"
         cx="-52.417934"
         cy="7.8232274"
         r="0.62931234" />
      <circle
         style="fill:none;stroke:#49bf9d;stroke-width:0.351;stroke-miterlimit:4;stroke-dasharray:none;stroke-opacity:1"
         id="circle76389"
         cx="-50.792072"
         cy="5.4340057"
         r="0.62931234" />
    </g>
  </g>
</svg>
